<svg viewBox="0 0 17 20" width="20" height="25" class="m-icon m-icon--small" xmlns="http://www.w3.org/2000/svg"><path d="M4.28 16.33a.82.82 0 0 1-.47-.15.8.8 0 0 1-.29-.9l1.54-4.79-3.78-3.25a.8.8 0 0 1-.23-.88.81.81 0 0 1 .75-.52h4.53l1.6-4.27c.11-.3.41-.5.75-.5s.63.2.75.5l1.6 4.27h4.53c.33 0 .63.21.75.52.12.31.02.67-.23.89l-3.77 3.24 1.7 4.79a.8.8 0 0 1-.23.86c-.27.25-.69.22-.95.08l-.05-.03-4.11-2.87-3.93 2.87a.8.8 0 0 1-.46.14zm.2-.74zm4.2-3.39c.1 0 .2.03.29.09l3.89 2.72-1.61-4.51a.5.5 0 0 1 .15-.55l3.62-3.11h-4.33a.5.5 0 0 1-.47-.32l-1.53-4.1-1.53 4.1a.49.49 0 0 1-.47.32H2.34l3.62 3.11c.15.13.21.34.15.53l-1.45 4.53 3.72-2.71a.5.5 0 0 1 .3-.1zm6.75-5.72zm-13.5 0z" fill="#dfc100"></path></svg>
