<?xml version="1.0" standalone="no"?>
<!DOCTYPE svg PUBLIC "-//W3C//DTD SVG 20010904//EN"
 "http://www.w3.org/TR/2001/REC-SVG-20010904/DTD/svg10.dtd">
<svg version="1.0" xmlns="http://www.w3.org/2000/svg"
 width="64.000000pt" height="64.000000pt" viewBox="0 0 64.000000 64.000000"
 preserveAspectRatio="xMidYMid meet">

<g transform="translate(0.000000,64.000000) scale(0.100000,-0.100000)"
fill="#000000" stroke="none">
<path d="M460 629 c-35 -14 -140 -120 -140 -141 0 -32 32 -19 91 37 32 30 66
56 76 56 71 5 99 -23 94 -95 -1 -24 -174 -201 -212 -217 -25 -10 -36 -9 -68 6
-64 29 -87 -9 -28 -46 24 -15 44 -19 80 -16 47 4 54 9 154 108 58 57 112 119
120 138 45 103 -61 211 -167 170z"/>
<path d="M246 410 c-38 -12 -213 -184 -233 -229 -43 -100 60 -209 162 -171 35
13 135 108 135 127 0 33 -33 23 -85 -26 -29 -28 -62 -52 -72 -52 -55 -4 -88
15 -95 56 -8 39 16 77 105 163 72 70 89 82 118 82 19 0 42 -7 52 -15 23 -17
47 -9 47 16 0 37 -79 65 -134 49z"/>
</g>
</svg>
