<?xml version="1.0" standalone="no"?>
<!DOCTYPE svg PUBLIC "-//W3C//DTD SVG 20010904//EN"
 "http://www.w3.org/TR/2001/REC-SVG-20010904/DTD/svg10.dtd">
<svg version="1.0" xmlns="http://www.w3.org/2000/svg"
 width="512.000000pt" height="512.000000pt" viewBox="0 0 512.000000 512.000000"
 preserveAspectRatio="xMidYMid meet">

<g transform="translate(0.000000,512.000000) scale(0.100000,-0.100000)"
fill="#c4c6c6" stroke="none">
<path d="M2461 4260 c-556 -77 -833 -718 -507 -1173 193 -272 539 -380 855
-269 114 41 185 86 276 177 91 91 136 162 177 276 130 368 -41 768 -398 930
-117 53 -276 76 -403 59z m234 -225 c181 -47 333 -199 380 -380 47 -181 -7
-377 -140 -510 -167 -167 -419 -204 -629 -92 -121 64 -226 197 -261 332 -19
76 -19 194 0 270 47 178 198 331 376 379 72 19 201 20 274 1z"/>
<path d="M2385 2549 c-576 -78 -1040 -499 -1175 -1063 -32 -131 -43 -297 -30
-427 6 -62 18 -127 26 -145 32 -68 -54 -64 1354 -64 1407 0 1322 -4 1354 64
21 44 38 233 31 330 -21 262 -91 477 -223 681 -200 310 -518 529 -879 605
-114 24 -351 34 -458 19z m394 -224 c229 -44 431 -152 602 -324 229 -228 349
-520 349 -847 l0 -84 -1177 0 -1176 0 6 127 c15 318 120 570 326 787 180 189
448 322 712 355 92 12 255 5 358 -14z"/>
</g>
</svg>
