<svg xmlns="http://www.w3.org/2000/svg" width="131" height="62" fill="none" fill-rule="evenodd" xmlns:v="https://vecta.io/nano"><path d="M83 33l-4.4 9.2H103l5.7-9.2zM0 40.3h5.5V59h4.8V40.3H16v-4.8H0zM21 36l-2 23H24l.6-5.4 5.6.1.5 5.2h5l-2.3-21.5-4.4-1.6c-1.2-.5-1.2-.5-4.4-.5-3.2 0-3.2 0-3.3.4zm31 13l-6.4-12.6a14 14 0 0 0-1.5.5c-.8.3-2 .6-2.6.7l-1 .2V59h5l.1-13.3L52 59H57V35.5h-4.6zM63.5 59h4.8v-9.3l3 .1 4 9h5l-5.3-11.7 5.5-11.8-5 .1-4 9-3 .1v-9.3h-4.8zM28.7 40.4l.7 8.4c-.1.2-4.5.2-4.6 0l.6-8c0-.4.7-.3 3.2-.3zm53 18.8l10.7.1 6.3-9.4-21.4-.1z" fill="#2f2e2e"/><path d="M24 5.4c-4.3 4.3-6.4 10-5.2 16C20 28 24.7 33 31 35.2c5 1.6 10 1.4 14.7-.6 9.8-4.2 14-15.3 9.6-24-3-6.7-10.8-11-18-10.6a20 20 0 0 0-13.6 5.4zm24.6 16c-1 3-3.2 5-6.6 6-1.8.6-5.2.7-7.2.3-4.2-1-7-3.6-8-7.3-1.7-7 3.7-13.6 11-19.7 6 4.5 13.2 13 10.7 20.6zM0 33.3h13v-9.6l4-.1c-.6-2.7-.6-5.4-.6-8H13V12l4.5-.1c1.7-4.2 3.7-6.4 6.3-8.8H0zm57.2-23c1.8 3.8 2.2 8 1.3 12-1.4 5.4-3.6 8-7 11h10.6l.2-.6 2.6-8 3 8.6 13-.1-7.8-16L81 3H68.3l-3.5 7.5L62.2 3H51.6c2.4 2.2 4.6 5 5.6 7.3zm20.4 1.5l46.8.1 6-9h-48zM75 18.3l4.2 9h35l6-8.8z" fill="#fd521f"/></svg>